<svg xmlns="http://www.w3.org/2000/svg" xmlns:xlink="http://www.w3.org/1999/xlink" width="500" zoomAndPan="magnify" viewBox="0 0 375 374.999991" height="500" preserveAspectRatio="xMidYMid meet" version="1.0"><defs><g/><clipPath id="63b61ff55e"><path d="M 43.574219 53 L 177 53 L 177 263 L 43.574219 263 Z M 43.574219 53 " clip-rule="nonzero"/></clipPath><clipPath id="e442102ce9"><path d="M 179 12.058594 L 194 12.058594 L 194 101 L 179 101 Z M 179 12.058594 " clip-rule="nonzero"/></clipPath><clipPath id="324cd74769"><path d="M 179 214 L 194 214 L 194 303.058594 L 179 303.058594 Z M 179 214 " clip-rule="nonzero"/></clipPath><clipPath id="1a08400faf"><path d="M 242 150 L 331.574219 150 L 331.574219 165 L 242 165 Z M 242 150 " clip-rule="nonzero"/></clipPath></defs><g clip-path="url(#63b61ff55e)"><path fill="#50ace4" d="M 159.359375 163.027344 L 168.953125 163.027344 L 162.164062 169.824219 L 152.171875 169.988281 Z M 162.164062 145.335938 L 168.953125 152.121094 L 159.359375 152.121094 L 152.171875 145.171875 Z M 49.035156 163.027344 L 74.546875 163.027344 L 60.914062 176.214844 C 58.753906 178.300781 58.6875 181.757812 60.785156 183.929688 C 62.878906 186.089844 66.324219 186.15625 68.496094 184.058594 L 90.238281 163.027344 L 143.667969 163.027344 L 136.195312 170.253906 L 131.9375 170.328125 C 128.925781 170.386719 126.523438 172.859375 126.570312 175.871094 C 126.597656 177.460938 127.300781 178.875 128.398438 179.855469 C 128.316406 181.3125 128.816406 182.792969 129.90625 183.929688 C 132 186.089844 135.457031 186.15625 137.617188 184.058594 L 140.683594 181.09375 L 151.074219 180.917969 L 113.289062 218.714844 L 83.0625 219.21875 C 80.039062 219.277344 77.648438 221.761719 77.695312 224.773438 C 77.75 227.785156 80.1875 230.167969 83.246094 230.132812 L 102.199219 229.808594 L 84.160156 247.851562 C 82.027344 249.988281 82.027344 253.441406 84.160156 255.566406 C 86.285156 257.703125 89.738281 257.703125 91.871094 255.566406 L 109.910156 237.523438 L 109.585938 256.492188 C 109.539062 259.503906 111.929688 261.988281 114.941406 262.03125 L 115.046875 262.03125 C 118.007812 262.03125 120.4375 259.652344 120.492188 256.675781 L 121 226.429688 L 158.785156 188.628906 L 158.609375 199.023438 L 155.644531 202.089844 C 153.558594 204.253906 153.613281 207.710938 155.773438 209.804688 C 156.910156 210.90625 158.40625 211.394531 159.867188 211.3125 C 160.847656 212.402344 162.25 213.117188 163.828125 213.140625 C 166.839844 213.214844 169.324219 210.796875 169.371094 207.773438 L 169.445312 203.515625 L 176.667969 196.042969 L 176.667969 180.34375 L 169.710938 187.53125 L 169.886719 177.535156 L 176.667969 170.742188 L 176.667969 144.40625 L 169.886719 137.625 L 169.710938 127.617188 L 176.667969 134.816406 L 176.667969 119.109375 L 169.445312 111.636719 L 169.371094 107.378906 C 169.324219 104.390625 166.886719 102.015625 163.921875 102.015625 L 163.828125 102.015625 C 162.238281 102.035156 160.847656 102.746094 159.867188 103.847656 C 159.765625 103.835938 159.664062 103.816406 159.570312 103.816406 C 158.203125 103.816406 156.835938 104.328125 155.773438 105.351562 C 153.613281 107.441406 153.558594 110.894531 155.644531 113.066406 L 158.609375 116.125 L 158.785156 126.519531 L 121 88.730469 L 120.492188 58.484375 C 120.4375 55.5 118.007812 53.117188 115.046875 53.117188 L 114.941406 53.117188 C 111.929688 53.171875 109.539062 55.65625 109.585938 58.667969 L 109.910156 77.628906 L 91.871094 59.585938 C 90.808594 58.519531 89.40625 57.984375 88.011719 57.984375 C 86.617188 57.984375 85.222656 58.519531 84.160156 59.585938 C 82.027344 61.71875 82.027344 65.171875 84.160156 67.296875 L 102.199219 85.34375 L 83.246094 85.019531 L 83.144531 85.019531 C 80.179688 85.019531 77.75 87.398438 77.695312 90.386719 C 77.648438 93.398438 80.039062 95.882812 83.0625 95.929688 L 113.289062 96.445312 L 151.074219 134.234375 L 140.683594 134.058594 L 137.617188 131.101562 C 136.554688 130.074219 135.199219 129.566406 133.828125 129.566406 C 132.398438 129.566406 130.976562 130.121094 129.90625 131.230469 C 128.804688 132.367188 128.316406 133.855469 128.398438 135.320312 C 127.308594 136.300781 126.597656 137.695312 126.570312 139.277344 C 126.523438 142.289062 128.925781 144.773438 131.9375 144.820312 L 136.195312 144.894531 L 143.667969 152.121094 L 90.238281 152.121094 L 68.496094 131.101562 C 67.433594 130.074219 66.066406 129.566406 64.707031 129.566406 C 63.277344 129.566406 61.855469 130.121094 60.785156 131.230469 C 58.6875 133.390625 58.753906 136.847656 60.914062 138.945312 L 74.546875 152.121094 L 49.035156 152.121094 C 46.023438 152.121094 43.578125 154.566406 43.578125 157.578125 C 43.578125 160.589844 46.023438 163.027344 49.035156 163.027344 " fill-opacity="1" fill-rule="nonzero"/></g><g clip-path="url(#e442102ce9)"><path fill="#ef2e33" d="M 186.117188 100.90625 C 182.296875 100.90625 179.199219 97.808594 179.199219 93.984375 L 179.199219 18.992188 C 179.199219 15.171875 182.296875 12.074219 186.117188 12.074219 C 189.9375 12.074219 193.035156 15.171875 193.035156 18.992188 L 193.035156 93.984375 C 193.035156 97.808594 189.9375 100.90625 186.117188 100.90625 " fill-opacity="1" fill-rule="nonzero"/></g><g clip-path="url(#324cd74769)"><path fill="#ef2e33" d="M 186.117188 303.078125 C 182.296875 303.078125 179.199219 299.980469 179.199219 296.160156 L 179.199219 221.164062 C 179.199219 217.34375 182.296875 214.246094 186.117188 214.246094 C 189.9375 214.246094 193.035156 217.34375 193.035156 221.164062 L 193.035156 296.160156 C 193.035156 299.980469 189.9375 303.078125 186.117188 303.078125 " fill-opacity="1" fill-rule="nonzero"/></g><path fill="#ef2e33" d="M 255.390625 284.511719 C 253.003906 284.511719 250.675781 283.269531 249.394531 281.050781 L 211.910156 216.109375 C 210 212.796875 211.132812 208.5625 214.441406 206.652344 C 217.75 204.742188 221.980469 205.875 223.890625 209.1875 L 261.375 274.132812 C 263.285156 277.441406 262.152344 281.675781 258.84375 283.585938 C 257.757812 284.214844 256.566406 284.511719 255.390625 284.511719 " fill-opacity="1" fill-rule="nonzero"/><path fill="#ef2e33" d="M 306.089844 233.785156 C 304.914062 233.785156 303.722656 233.488281 302.632812 232.859375 L 237.710938 195.363281 C 234.398438 193.449219 233.265625 189.21875 235.179688 185.910156 C 237.089844 182.601562 241.320312 181.46875 244.632812 183.378906 L 309.554688 220.875 C 312.863281 222.78125 313.996094 227.015625 312.085938 230.328125 C 310.804688 232.546875 308.480469 233.785156 306.089844 233.785156 " fill-opacity="1" fill-rule="nonzero"/><g clip-path="url(#1a08400faf)"><path fill="#ef2e33" d="M 324.65625 164.496094 L 249.6875 164.496094 C 245.867188 164.496094 242.769531 161.398438 242.769531 157.574219 C 242.769531 153.753906 245.867188 150.65625 249.6875 150.65625 L 324.65625 150.65625 C 328.476562 150.65625 331.574219 153.753906 331.574219 157.574219 C 331.574219 161.398438 328.476562 164.496094 324.65625 164.496094 " fill-opacity="1" fill-rule="nonzero"/></g><path fill="#ef2e33" d="M 241.179688 132.699219 C 238.785156 132.699219 236.460938 131.460938 235.179688 129.242188 C 233.265625 125.929688 234.398438 121.695312 237.710938 119.785156 L 302.632812 82.292969 C 305.945312 80.378906 310.175781 81.511719 312.085938 84.824219 C 313.996094 88.132812 312.863281 92.367188 309.554688 94.28125 L 244.632812 131.773438 C 243.539062 132.402344 242.351562 132.699219 241.179688 132.699219 " fill-opacity="1" fill-rule="nonzero"/><path fill="#ef2e33" d="M 217.894531 109.425781 C 216.71875 109.425781 215.53125 109.125 214.441406 108.496094 C 211.132812 106.585938 210 102.351562 211.910156 99.042969 L 249.394531 34.097656 C 251.304688 30.789062 255.535156 29.65625 258.84375 31.566406 C 262.152344 33.476562 263.285156 37.707031 261.375 41.019531 L 223.890625 105.964844 C 222.609375 108.183594 220.285156 109.425781 217.894531 109.425781 " fill-opacity="1" fill-rule="nonzero"/><path fill="#ef2e33" d="M 225.308594 157.574219 C 225.308594 179.230469 207.761719 196.773438 186.113281 196.773438 L 186.113281 118.367188 C 207.761719 118.367188 225.308594 135.921875 225.308594 157.574219 " fill-opacity="1" fill-rule="nonzero"/><g fill="#50ace4" fill-opacity="1"><g transform="translate(43.542504, 349.221921)"><g><path d="M 8.242188 0 L 8.242188 -19.308594 L 16.320312 -8.121094 L 17.664062 -8.121094 L 25.824219 -19.269531 L 25.824219 0 L 30.816406 0 L 30.816406 -27.269531 L 26.464844 -27.269531 L 17.003906 -14.554688 L 7.597656 -27.269531 L 3.25 -27.269531 L 3.25 0 Z M 8.242188 0 "/></g></g></g><g fill="#50ace4" fill-opacity="1"><g transform="translate(80.045964, 349.221921)"><g><path d="M 16.019531 0 L 16.019531 -10.40625 L 26.785156 -27.269531 L 20.910156 -27.269531 L 13.554688 -14.816406 L 13.535156 -14.816406 L 6.113281 -27.269531 L 0.300781 -27.269531 L 11.027344 -10.367188 L 11.027344 0 Z M 16.019531 0 "/></g></g></g><g fill="#50ace4" fill-opacity="1"><g transform="translate(109.593235, 349.221921)"><g/></g></g><g fill="#50ace4" fill-opacity="1"><g transform="translate(122.060763, 349.221921)"><g><path d="M 14.136719 0 L 20.429688 -20.429688 L 26.707031 0 L 31.558594 0 L 40.5625 -27.289062 L 35.269531 -27.289062 L 29.554688 -9.082031 L 28.992188 -6.695312 L 28.933594 -6.695312 L 28.472656 -8.941406 L 23.058594 -27.269531 L 17.785156 -27.269531 L 12.351562 -8.902344 L 11.949219 -6.695312 L 11.871094 -6.695312 L 11.347656 -8.84375 L 5.574219 -27.289062 L 0.300781 -27.289062 L 9.304688 0 Z M 14.136719 0 "/></g></g></g><g fill="#50ace4" fill-opacity="1"><g transform="translate(165.360035, 349.221921)"><g><path d="M 22.113281 0 L 22.113281 -4.472656 L 8.242188 -4.472656 L 8.242188 -11.75 L 20.070312 -11.75 L 20.070312 -15.960938 L 8.242188 -15.960938 L 8.242188 -22.796875 L 21.933594 -22.796875 L 21.933594 -27.269531 L 3.25 -27.269531 L 3.25 0 Z M 22.113281 0 "/></g></g></g><g fill="#50ace4" fill-opacity="1"><g transform="translate(191.238766, 349.221921)"><g><path d="M 27.609375 0 L 16.261719 -27.289062 L 11.527344 -27.289062 L 0.179688 0 L 5.453125 0 L 7.617188 -5.273438 L 20.171875 -5.273438 L 22.335938 0 Z M 13.714844 -20.191406 L 13.875 -20.851562 L 13.933594 -20.851562 L 14.054688 -20.191406 L 18.464844 -9.445312 L 9.324219 -9.445312 Z M 13.714844 -20.191406 "/></g></g></g><g fill="#50ace4" fill-opacity="1"><g transform="translate(221.507714, 349.221921)"><g><path d="M 13.953125 0 L 13.953125 -22.816406 L 22.074219 -22.816406 L 22.074219 -27.269531 L 0.863281 -27.269531 L 0.863281 -22.816406 L 8.980469 -22.816406 L 8.980469 0 Z M 13.953125 0 "/></g></g></g><g fill="#50ace4" fill-opacity="1"><g transform="translate(246.905325, 349.221921)"><g><path d="M 8.242188 0 L 8.242188 -11.507812 L 21.996094 -11.507812 L 21.996094 0 L 27.007812 0 L 27.007812 -27.269531 L 21.996094 -27.269531 L 21.996094 -15.960938 L 8.242188 -15.960938 L 8.242188 -27.269531 L 3.25 -27.269531 L 3.25 0 Z M 8.242188 0 "/></g></g></g><g fill="#50ace4" fill-opacity="1"><g transform="translate(279.619977, 349.221921)"><g><path d="M 22.113281 0 L 22.113281 -4.472656 L 8.242188 -4.472656 L 8.242188 -11.75 L 20.070312 -11.75 L 20.070312 -15.960938 L 8.242188 -15.960938 L 8.242188 -22.796875 L 21.933594 -22.796875 L 21.933594 -27.269531 L 3.25 -27.269531 L 3.25 0 Z M 22.113281 0 "/></g></g></g><g fill="#50ace4" fill-opacity="1"><g transform="translate(305.498708, 349.221921)"><g><path d="M 8.242188 0 L 8.242188 -9.664062 L 12.914062 -9.664062 C 13.273438 -9.664062 13.613281 -9.664062 13.976562 -9.683594 L 19.367188 0 L 25.101562 0 L 18.925781 -10.445312 C 22.277344 -11.609375 24.480469 -14.535156 24.480469 -18.386719 C 24.480469 -23.699219 20.53125 -27.269531 15.015625 -27.269531 L 3.25 -27.269531 L 3.25 0 Z M 8.242188 -22.816406 L 14.816406 -22.816406 C 17.464844 -22.816406 19.488281 -20.871094 19.488281 -18.386719 C 19.488281 -15.71875 17.484375 -13.894531 14.835938 -13.875 L 8.242188 -13.875 Z M 8.242188 -22.816406 "/></g></g></g></svg>